<svg width="117" height="48" fill="none" xmlns="http://www.w3.org/2000/svg"><path d="M52.136 47.88c-.305-.091-.4-.397-.4-1.284v-1.164h.88c.555 0 1.008-.17 1.225-.46.71-.95.672-1.053-.278-.762-.786.24-.99.206-1.539-.261-1.025-.874-1.198-1.558-1.201-4.761l-.004-2.959h2.502l.067 2.564c.06 2.363.1 2.564.523 2.564.422 0 .463-.2.524-2.564l.065-2.563h2.532l-.072 4.583c-.065 4.135-.118 4.655-.543 5.324-.882 1.386-2.828 2.179-4.28 1.743zm8.16-3.614c-1.276-.638-1.461-1.232-1.461-4.677v-3.096h2.52v2.648c0 2.38.04 2.64.4 2.56.343-.075.41-.454.466-2.648l.066-2.56h2.486l.065 2.563c.053 2.07.132 2.564.41 2.564.277 0 .355-.494.408-2.564l.066-2.563h2.503v2.905c0 3.364-.285 4.29-1.497 4.872-1.036.497-1.442.472-2.454-.15-.85-.524-.853-.524-1.6-.002-.87.609-1.39.641-2.378.148zM28.712 44.1c-.382-.127-.934-.488-1.227-.802-.98-1.047-1.17-2.05-1.17-6.14v-3.822h2.519v3.567c0 1.962.107 3.796.237 4.076.265.568 1.128.676 1.55.193.684-.786.04-2.249-.87-1.975-.421.126-.46.01-.46-1.416 0-1.523.013-1.552.64-1.552.996 0 2.619 1.078 3.115 2.07.987 1.974.328 4.448-1.46 5.489-1.07.622-1.73.694-2.874.312zm7.999-.005c-.81-.27-1.88-1.397-2.179-2.296-.585-1.764.03-3.946 1.367-4.85 2.502-1.69 5.63.203 5.587 3.385-.02 1.569-.66 2.741-1.885 3.454-1.073.625-1.728.694-2.89.307zm1.925-2.923c.15-.174.274-.564.274-.868 0-.304-.123-.694-.274-.868-.151-.173-.492-.315-.756-.315-.265 0-.605.142-.756.315-.15.174-.275.564-.275.868 0 .304.124.694.275.868.151.173.491.315.756.315.264 0 .605-.142.756-.315zm6.109 2.929c-.381-.128-1.042-.646-1.47-1.151-.638-.757-.793-1.167-.873-2.309-.08-1.14-.001-1.55.439-2.285.75-1.255 1.564-1.879 2.674-2.05l.953-.147v1.481c0 1.408-.029 1.48-.577 1.48-.749 0-1.194.99-.813 1.808.287.615 1.136.746 1.573.244.188-.216.275-1.502.275-4.076v-3.76H49.723l-.082 4.01c-.096 4.692-.338 5.46-2.024 6.442-1.07.622-1.73.694-2.872.313zm27.005-.006c-.81-.27-1.88-1.397-2.178-2.296-.586-1.764.03-3.946 1.366-4.85 2.503-1.69 5.63.203 5.588 3.385-.02 1.569-.661 2.741-1.885 3.454-1.074.625-1.729.694-2.89.307zm1.925-2.923c.151-.174.275-.564.275-.868 0-.304-.124-.694-.275-.868-.151-.173-.491-.315-.756-.315-.264 0-.604.142-.755.315-.151.174-.275.564-.275.868 0 .304.124.694.275.868.15.173.49.315.755.315s.605-.142.756-.315zm4.168.18v-3.028l.745-.919c.579-.715.985-.955 1.832-1.083l1.087-.165v1.464c0 1.317-.05 1.472-.515 1.547-.489.08-.518.216-.58 2.648l-.066 2.563h-2.502v-3.027zm4.58-2.494v-5.522h2.52V44.38h-2.52V38.86zm4.166 5.061c-.111-.253-.49-1.424-.841-2.602l-.64-2.143.532-1.473.532-1.472h1.332c.733 0 1.332.063 1.332.14 0 .077-.269.748-.597 1.492l-.596 1.352.578 1.597c.317.879.742 2.041.943 2.583l.365.986H88.16c-1.074 0-1.413-.099-1.571-.46zm20.167-5.578l-.744-.527.008-2.305c.007-2.188.261-6.193.584-9.206.135-1.256.107-1.38-.303-1.38-.285 0-.688.43-1.092 1.163-.96 1.744-2.451 2.78-4 2.78-1.03 0-2.653-.77-3.615-1.715l-.913-.898-.965.435c-1.729.78-3.907-.283-4.879-2.38-.456-.985-.508-1.478-.51-4.907-.002-3.562-.03-3.813-.435-3.813-.63 0-1.769 1.758-1.99 3.073-.105.624-.196 2.275-.201 3.67-.01 2.478-.023 2.538-.58 2.699-.87.25-2.133-.465-2.318-1.313-.514-2.353 1.15-16.133 2.401-19.88.454-1.358 3-1.285 3.68.105.42.86.233 1.927-1.1 6.256-1.2 3.89-1.21 4.201-.124 3.25.618-.542 1.154-.75 2.144-.832 1.196-.1 1.388-.04 2.052.643.875.897.948 1.857.361 4.696-.546 2.64-.57 5.869-.051 6.78.251.442.611.713.945.713.846 0 1.053-.492.793-1.89-.459-2.47.615-5.972 2.168-7.07 1.038-.734 2.307-1.128 2.996-.93.767.222.748.606-.095 1.921-1.001 1.563-1.403 3.091-1.417 5.392-.014 2.322.457 3.591 1.488 4.007.678.274 1.523-.257 2.16-1.36.309-.534.283-.592-.435-.94-1.962-.953-2.48-3.423-1.342-6.4.647-1.693 1.694-1.757 3.072-.188.976 1.11 1.502 2.631 1.508 4.36.005 1.43.03 1.493.5 1.294.404-.172.567-.624.894-2.475.635-3.604.834-4.135 1.549-4.134.871.002 2.062.915 2.237 1.716.082.375.099 1.193.037 1.818l-.111 1.136 1.094-.652c1.215-.724 1.896-.68 3.16.203 1.067.744 1.627 2.324 1.633 4.605.012 4.48-1.671 7.043-4.594 6.997-1.18-.02-2.447-.744-2.845-1.627-.418-.928-.24-1.109.567-.577 1.247.822 2.382-.542 3.13-3.76.363-1.556.409-4.238.079-4.472-.416-.295-1.755.893-2.601 2.306-1.011 1.69-1.674 3.91-1.933 6.475-.179 1.77-.159 1.953.224 2.068.285.086.42.37.42.885 0 .595-.103.758-.482.758-.454 0-.478.113-.401 1.906.08 1.868.07 1.908-.491 1.977-.315.04-.907-.166-1.317-.456zm-2.805-16.94c0-1.792-.083-2.321-.444-2.826-.358-.501-.522-.565-.853-.333-.555.39-.823 2.037-.531 3.278.214.913 1.131 2.088 1.63 2.088.109 0 .198-.993.198-2.206zM3.819 35.597c-.137-.821-.126-.831 1.197-1.067.567-.102 5.41-1.295 10.764-2.653 13.408-3.401 21.217-4.99 29.163-5.93 2.703-.32 2.716-.325 3.656-1.362a27.7 27.7 0 0 1 2.154-2.068c.805-.682 1.211-1.216 1.211-1.589 0-.5-.09-.457-.835.398-1.184 1.36-2.915 1.622-3.823.578-.3-.344-.489-.311-1.621.284-.705.37-1.756.694-2.335.719-.932.04-1.126-.054-1.675-.808l-.62-.853-.647.775c-1.292 1.549-3.236 2.054-4.255 1.107-.509-.473-.536-.467-1.631.38-1.864 1.44-3.939 1.44-4.871 0-.424-.656-.474-1.104-.474-4.32 0-3.144-.047-3.598-.383-3.674-.99-.223-2.48 4.514-2.48 7.886 0 1.99-.015 2.046-.675 2.438-.817.485-1.995.525-2.139.072-.082-.261-.191-.262-.534-.002-2.042 1.547-3.622 1.817-4.53.775l-.53-.608-.751 1.029c-.99 1.352-1.987 2.025-3.005 2.026-.904.001-2.034-.828-2.034-1.492 0-.245-.542.172-1.382 1.064-1.623 1.726-2.851 2.596-4.684 3.32-2.57 1.016-4.278.523-5.33-1.536-.529-1.038-.628-1.57-.706-3.794-.267-7.62 3.3-15.618 8.208-18.405.71-.402 1.447-.585 2.365-.585 1.249 0 1.385.064 2.119.982.676.847.784 1.165.784 2.31 0 2.618-1.15 4.292-2.85 4.149l-.929-.079.081-1.91c.185-4.346-1.929-4.314-3.73.057-1.249 3.03-2.193 9.303-1.86 12.357.14 1.278.31 1.722.928 2.432.638.733.922.868 1.817.868 1.338 0 2.22-.427 3.737-1.809 1.11-1.01 1.203-1.182 1.205-2.206.006-2.274.972-5.138 2.428-7.2.806-1.142 2.778-2.457 3.684-2.457.29 0 .527-.118.527-.261 0-.477 1.89-1.843 2.55-1.843 1.066 0 1.137 1.212.32 5.491-.473 2.484-.395 5.514.152 5.91.264.19.596.196 1.031.021.632-.255.645-.3.806-3.013.332-5.565.908-9.245 1.565-10 .623-.715 1.998-.947 2.46-.416.321.368.336.615.105 1.809-.147.76-.42 1.944-.61 2.63-.187.688-.305 1.25-.26 1.25.045 0 .389-.625.764-1.388 1.518-3.088 4.528-5.043 5.624-3.653.476.603.481 1.875.017 4.17-.472 2.332-.536 5.652-.12 6.226.38.528.94.548 1.526.056.373-.314.446-.704.453-2.432.014-3.62 1.227-6.717 3.273-8.36.779-.625 1.235-.796 2.128-.797.95-.001 1.152-.088 1.234-.527.054-.29.261-1.591.46-2.893.2-1.301.574-3.28.833-4.399l.47-2.033 1.23-.445c.972-.351 1.349-.382 1.802-.145 1.089.57 1.04 1.495-.302 5.84-.943 3.047-1.645 7.202-1.778 10.516-.123 3.053.113 4.012 1.023 4.162.871.143 1.174-.37 1.032-1.75-.141-1.381.636-7.13 1.159-8.565.623-1.714 3.176-1.964 3.668-.36.17.555.053 1.31-.539 3.48-.754 2.764-.966 4.87-.632 6.273.217.908.57.809 1.254-.351.87-1.475 1.306-3.57 1.258-6.044-.024-1.229.063-2.617.193-3.085.458-1.645 2.048-2.372 3.514-1.605.766.4.765 1.336-.007 4.953-.946 4.438-1.235 6.366-.932 6.216.144-.07.803-.398 1.465-.727.766-.38 1.282-.506 1.422-.346.361.415-.023.807-1.709 1.742-1.566.868-1.609.919-1.867 2.195-.146.718-.274 1.59-.286 1.937l-.022.631 2.232-.166c5.603-.416 17.856.777 28.112 2.737 4.298.821 19.992 4.385 20.313 4.613.101.072.184.547.184 1.056 0 .871-.037.917-.63.776-.346-.083-4.391-.797-8.988-1.586-15.78-2.71-23.114-3.508-34.386-3.745l-7.706-.162-.393.894c-.898 2.04-2.243 3.13-3.862 3.13-1.299 0-2.323-.917-2.667-2.386-.134-.568-.344-1.033-.468-1.033-.732 0-9.72 1.143-12.546 1.596-3.849.616-5.359.896-17.441 3.235-4.85.938-9.55 1.787-10.446 1.886-1.628.18-1.628.18-1.744-.514zm45.74-5.677c.619-.67.73-.58-.65-.526-1.583.063-1.53-.071-.792.736.416.456.974.384 1.443-.21zm-.283-2.913c.69-.504 1.186-.857 1.458-1.089.259-.191.816-1.995.624-2.28-.14-.21-2.211 1.927-2.853 2.943-1.156 1.834-1.164 1.84.77.426zm-32.248-1.863c.346-.992 1.158-8.102.992-8.676-.121-.416-1.078.574-1.664 1.72-.816 1.6-1.552 5.014-1.39 6.454.26 2.34 1.33 2.601 2.062.502zm22.89-4.492c.57-1.02 1.024-3.383 1.186-6.18.178-3.079.05-3.269-1.187-1.763-1.323 1.61-2.198 6.435-1.456 8.026.319.684 1.05.643 1.457-.083zm31.97 2.01c-2.162-.665-3.712-2.202-4.319-4.284-1.083-3.713 1.605-8.408 4.857-8.483 2.438-.056 4.044 2.694 2.565 4.393-.843.967-1.788.865-2.545-.275-.456-.687-.784-.92-1.289-.92-1.33 0-2.546 2.27-2.161 4.03.612 2.8 5.529 4.685 8.099 3.106 1.01-.62 1.747-2.096 1.848-3.702.124-1.967-.224-2.728-2.49-5.448-1.424-1.71-1.858-2.426-2.144-3.532-.422-1.632-.432-1.897-.12-3.189C74.744 2.063 76.507.75 79.043.74c3.708-.014 7.063 3.084 6.753 6.236-.148 1.503-.89 2.435-1.939 2.435-1.48 0-1.662-.292-1.662-2.664 0-2.695-.387-3.714-1.626-4.283-2.12-.974-3.761-.1-3.75 1.995.008 1.574.513 2.322 3.073 4.548 3.322 2.887 4.181 4.715 3.657 7.777-.537 3.13-2.313 5.121-5.253 5.889-1.944.508-4.736.503-6.407-.011z" fill="#fff"/></svg>